PathFileType	4	(X/Y/Z)	F:\PHD\Matlab_Output_Files\Ahelaos\HopStudy\HopDistance\Right\HDR_3\HDR_3.trc
DataRate	CameraRate	NumFrames	NumMarkers	Units	OrigDataRate	OrigDataStartFrame	OrigNumFrames
100.000000	100.000000	10	46	m	100.000000	147	195
Frame#	Times			LFHD			RFHD			LBHD			RBHD			C7			T10			CLAV			STRN			RBAK			LSHO			LELB			LWRA			LWRB			LFIN			RSHO			RELB			RWRA			RWRB			RFIN			LASI			RASI			SACR			RPSI			LPSI			LTHI			LTHI2			LTHI3			LKNE			LTIB			LTIB2			LTIB3			LANK			LHEE			LTOE			LLatFoot			RTHI			RTHI2			RTHI3			RKNE			RTIB			RTIB2			RTIB3			RANK			RHEE			RTOE			RLatFoot
		X1	Y1	Z1	X2	Y2	Z2	X3	Y3	Z3	X4	Y4	Z4	X5	Y5	Z5	X6	Y6	Z6	X7	Y7	Z7	X8	Y8	Z8	X9	Y9	Z9	X10	Y10	Z10	X11	Y11	Z11	X12	Y12	Z12	X13	Y13	Z13	X14	Y14	Z14	X15	Y15	Z15	X16	Y16	Z16	X17	Y17	Z17	X18	Y18	Z18	X19	Y19	Z19	X20	Y20	Z20	X21	Y21	Z21	X22	Y22	Z22	X23	Y23	Z23	X24	Y24	Z24	X25	Y25	Z25	X26	Y26	Z26	X27	Y27	Z27	X28	Y28	Z28	X29	Y29	Z29	X30	Y30	Z30	X31	Y31	Z31	X32	Y32	Z32	X33	Y33	Z33	X34	Y34	Z34	X35	Y35	Z35	X36	Y36	Z36	X37	Y37	Z37	X38	Y38	Z38	X39	Y39	Z39	X40	Y40	Z40	X41	Y41	Z41	X42	Y42	Z42	X43	Y43	Z43	X44	Y44	Z44	X45	Y45	Z45	X46	Y46	Z46

147	1.47	-0.30826	1.7541	0.1908	-0.31041	1.7508	0.30399	-0.46529	1.8501	0.18127	-0.453	1.8298	0.31199	-0.60194	1.7118	0.25408	-0.74779	1.4185	0.24844	-0.50069	1.602	0.23895	-0.51551	1.4326	0.21925	-0.67581	1.6219	0.3759	-0.57265	1.7387	0.11283	-0.6992	1.4439	-0.073034	-0.4089	1.4022	-0.079977	-0.41945	1.3449	-0.13141	-0.38076	1.4054	-0.14661	-0.53076	1.6582	0.39542	-0.68311	1.3434	0.53493	-0.54158	1.1051	0.41384	-0.58503	1.066	0.46468	-0.50676	1.0612	0.46954	-0.6046	1.2064	0.10422	-0.56761	1.1726	0.32888	-0.77441	1.228	0.23054	-0.75228	1.2374	0.29052	-0.76606	1.2572	0.18283	-0.56151	0.92447	0.01303	-0.50366	1.0071	0.0067867	-0.47476	0.92383	-0.0069948	-0.3853	0.79466	0.0065618	-0.56293	0.81366	0.027805	-0.55201	0.75015	0.034252	-0.6066	0.77201	0.044525	-0.77054	0.76637	0.10498	-0.77733	0.80427	0.14229	-0.7895	0.61724	0.11342	-0.84348	0.68887	0.093549	-0.56228	0.88021	0.37497	-0.65002	0.83902	0.3556	-0.57467	0.80009	0.36053	-0.54362	0.63978	0.32313	-0.54281	0.43619	0.31443	-0.60808	0.43444	0.31468	-0.5778	0.38856	0.30712	-0.58226	0.21575	0.26036	-0.6244	0.21599	0.20389	-0.44852	0.15173	0.26242	-0.52761	0.13066	0.28243
148	1.48	-0.29591	1.748	0.18969	-0.2979	1.7449	0.30323	-0.45267	1.8444	0.17985	-0.44014	1.8241	0.31062	-0.58964	1.707	0.25275	-0.73624	1.4138	0.24794	-0.4888	1.5962	0.23882	-0.50401	1.4272	0.21832	-0.66464	1.6172	0.37385	-0.55898	1.7333	0.11106	-0.68657	1.4394	-0.075341	-0.39684	1.389	-0.083454	-0.40976	1.3304	-0.13321	-0.36878	1.3888	-0.15124	-0.51939	1.6524	0.39486	-0.68216	1.343	0.53666	-0.54333	1.0981	0.42602	-0.58903	1.0617	0.47724	-0.51104	1.0553	0.4838	-0.59419	1.2013	0.10325	-0.5553	1.1677	0.32778	-0.76417	1.2235	0.2309	-0.74096	1.2324	0.2908	-0.75551	1.2526	0.18322	-0.55391	0.91714	0.012622	-0.49523	0.99927	0.0064169	-0.46748	0.9161	-0.0075673	-0.37947	0.78523	0.0065712	-0.55671	0.80743	0.028899	-0.54696	0.74361	0.03628	-0.60104	0.76647	0.046634	-0.76444	0.76408	0.10822	-0.77041	0.80234	0.14503	-0.78603	0.61504	0.11782	-0.83907	0.68748	0.098117	-0.54859	0.87638	0.37509	-0.63427	0.83427	0.35515	-0.55835	0.79651	0.36072	-0.52489	0.63667	0.32301	-0.51597	0.4332	0.31421	-0.58129	0.42884	0.31432	-0.54889	0.38417	0.30646	-0.54575	0.21115	0.25938	-0.5877	0.20963	0.20291	-0.40878	0.15309	0.26132	-0.48688	0.12786	0.28084
149	1.49	-0.28348	1.7407	0.18873	-0.28571	1.7378	0.30239	-0.43981	1.838	0.1787	-0.42776	1.8177	0.30955	-0.57749	1.701	0.25123	-0.72475	1.4082	0.24774	-0.47707	1.5898	0.23857	-0.49258	1.4209	0.21744	-0.65372	1.6115	0.37215	-0.54565	1.7268	0.10916	-0.67375	1.4337	-0.077981	-0.38493	1.3747	-0.087052	-0.4005	1.3153	-0.13486	-0.35709	1.3709	-0.15534	-0.50869	1.6456	0.39434	-0.68062	1.3424	0.53874	-0.54545	1.0913	0.43793	-0.59292	1.0568	0.48895	-0.51534	1.0498	0.49742	-0.58366	1.1952	0.10203	-0.54265	1.1622	0.32629	-0.75217	1.217	0.23161	-0.72924	1.2259	0.29135	-0.74546	1.2471	0.18395	-0.54621	0.90918	0.012918	-0.48638	0.99075	0.0063927	-0.45991	0.90709	-0.0073447	-0.37351	0.77508	0.0064311	-0.55045	0.79996	0.030365	-0.54139	0.73636	0.037679	-0.5952	0.75984	0.048327	-0.75793	0.76	0.11171	-0.76227	0.79763	0.14905	-0.78155	0.61153	0.12197	-0.83396	0.68441	0.10246	-0.53323	0.87185	0.37426	-0.6184	0.82857	0.35472	-0.54233	0.7914	0.36059	-0.50673	0.63252	0.32301	-0.49046	0.42961	0.31437	-0.55558	0.4226	0.31406	-0.5215	0.37914	0.30603	-0.5107	0.20608	0.25848	-0.55248	0.20329	0.2021	-0.37114	0.15305	0.26003	-0.44787	0.12427	0.27925
150	1.5	-0.27126	1.7329	0.18826	-0.27367	1.7296	0.30156	-0.42684	1.8301	0.17792	-0.41553	1.8105	0.30933	-0.56561	1.6939	0.2495	-0.71336	1.4013	0.2476	-0.46571	1.5818	0.23805	-0.48171	1.4138	0.21671	-0.64299	1.6048	0.37057	-0.53257	1.7192	0.10716	-0.65995	1.4267	-0.081346	-0.37323	1.3592	-0.090386	-0.39119	1.299	-0.13671	-0.34577	1.3526	-0.15845	-0.49799	1.6381	0.39317	-0.6787	1.342	0.5414	-0.54753	1.0848	0.4496	-0.59656	1.0526	0.50078	-0.51943	1.0442	0.51063	-0.57348	1.1885	0.10111	-0.52967	1.1557	0.32474	-0.74052	1.2091	0.23311	-0.71707	1.2182	0.29184	-0.73614	1.2401	0.18495	-0.53818	0.90049	0.013235	-0.47752	0.98151	0.0062815	-0.45186	0.8976	-0.0074021	-0.36668	0.76415	0.0061299	-0.54323	0.79156	0.031329	-0.53522	0.72776	0.039012	-0.58843	0.75095	0.051221	-0.75082	0.75459	0.11474	-0.75387	0.79245	0.15182	-0.77588	0.60615	0.12586	-0.8276	0.67972	0.10634	-0.51773	0.86576	0.37366	-0.60278	0.82181	0.35423	-0.52637	0.78507	0.36064	-0.48885	0.62683	0.32311	-0.46629	0.42466	0.31437	-0.53111	0.41534	0.31318	-0.49546	0.37354	0.30564	-0.47764	0.20084	0.25754	-0.51931	0.19693	0.20098	-0.33584	0.15111	0.25825	-0.41168	0.11957	0.2771
151	1.51	-0.25875	1.7235	0.18772	-0.26199	1.7206	0.30092	-0.41456	1.8215	0.17669	-0.4034	1.8016	0.30779	-0.55413	1.686	0.24806	-0.7021	1.3934	0.24746	-0.45447	1.573	0.23737	-0.47061	1.4054	0.21569	-0.63241	1.5969	0.36864	-0.51981	1.7104	0.10537	-0.64687	1.4191	-0.084447	-0.36168	1.3426	-0.093914	-0.38153	1.2812	-0.13836	-0.33496	1.3321	-0.16247	-0.48841	1.6294	0.39228	-0.67623	1.341	0.54397	-0.54927	1.0787	0.46115	-0.59998	1.0487	0.51222	-0.52329	1.0387	0.52375	-0.56336	1.1811	0.099908	-0.51674	1.1488	0.323	-0.72925	1.1997	0.23451	-0.70525	1.2091	0.29287	-0.72651	1.2319	0.18632	-0.52975	0.89102	0.013576	-0.46811	0.97169	0.0060489	-0.4434	0.88724	-0.007443	-0.35939	0.75292	0.0060017	-0.53561	0.78207	0.03262	-0.52814	0.71813	0.040258	-0.58112	0.7429	0.051461	-0.74248	0.74712	0.1173	-0.74515	0.78529	0.15435	-0.76891	0.59942	0.12919	-0.82018	0.67323	0.10997	-0.50231	0.85825	0.37336	-0.58738	0.81385	0.35425	-0.5107	0.7775	0.36099	-0.47115	0.61998	0.32329	-0.44315	0.419	0.31443	-0.50784	0.40784	0.31227	-0.47075	0.36696	0.30493	-0.44683	0.19468	0.25606	-0.48838	0.19043	0.19956	-0.30333	0.14657	0.25633	-0.37867	0.11372	0.27484
152	1.52	-0.24704	1.7135	0.18733	-0.2505	1.7104	0.29982	-0.4031	1.8124	0.17608	-0.39176	1.7924	0.30735	-0.54284	1.6769	0.24637	-0.691	1.3844	0.24755	-0.4433	1.5633	0.2368	-0.45975	1.3961	0.21463	-0.62182	1.5883	0.36732	-0.50753	1.7006	0.1035	-0.63363	1.4097	-0.087671	-0.35008	1.3253	-0.096224	-0.37256	1.2626	-0.13879	-0.32387	1.3108	-0.16547	-0.47847	1.6203	0.39099	-0.67337	1.3398	0.54676	-0.55057	1.0729	0.47299	-0.60319	1.0445	0.52295	-0.52703	1.0328	0.53669	-0.55365	1.1731	0.098636	-0.50368	1.1407	0.32081	-0.71796	1.1895	0.23613	-0.69361	1.1992	0.29393	-0.71611	1.2221	0.18744	-0.52021	0.88056	0.013547	-0.4587	0.96067	0.0055722	-0.43432	0.87619	-0.0074826	-0.35108	0.74116	0.0059848	-0.5272	0.77125	0.03334	-0.51996	0.70754	0.041587	-0.57277	0.73263	0.053054	-0.73365	0.7381	0.1198	-0.7358	0.77645	0.15677	-0.76053	0.59054	0.13243	-0.81142	0.66471	0.11321	-0.48678	0.84992	0.37314	-0.57206	0.80521	0.35399	-0.49482	0.76888	0.36177	-0.4534	0.61195	0.32343	-0.42115	0.41173	0.31384	-0.48538	0.39947	0.31158	-0.4473	0.35925	0.30407	-0.41886	0.188	0.25467	-0.46006	0.18383	0.19801	-0.27417	0.13859	0.25409	-0.34955	0.10576	0.27218
153	1.53	-0.23606	1.7022	0.18603	-0.23925	1.6995	0.29898	-0.39122	1.8018	0.17513	-0.37994	1.7816	0.30584	-0.53182	1.6667	0.24463	-0.68016	1.3746	0.24779	-0.43217	1.5529	0.23626	-0.44931	1.3858	0.21332	-0.61155	1.5784	0.36522	-0.49566	1.6897	0.1015	-0.62044	1.3993	-0.090869	-0.33888	1.3061	-0.099635	-0.364	1.2436	-0.14002	-0.31341	1.2885	-0.16817	-0.46803	1.6108	0.38952	-0.66993	1.3377	0.54925	-0.55095	1.0668	0.48483	-0.60603	1.0399	0.53317	-0.53055	1.0267	0.5495	-0.54351	1.1637	0.097204	-0.49063	1.1318	0.31864	-0.70639	1.1776	0.23821	-0.6814	1.188	0.29518	-0.70582	1.2116	0.18901	-0.51077	0.8691	0.014212	-0.44833	0.94888	0.0051153	-0.42482	0.86457	-0.0078316	-0.34193	0.72895	0.0059189	-0.51797	0.75907	0.033741	-0.51124	0.69534	0.042638	-0.56372	0.72121	0.054591	-0.72405	0.72756	0.12191	-0.72569	0.76595	0.15896	-0.75108	0.58015	0.13493	-0.80203	0.65398	0.11605	-0.46978	0.8404	0.37341	-0.55619	0.79526	0.35407	-0.47884	0.75935	0.36304	-0.43505	0.60299	0.32347	-0.39962	0.40406	0.31355	-0.46379	0.39045	0.3107	-0.42506	0.35116	0.30314	-0.39391	0.18038	0.25339	-0.43506	0.17675	0.19666	-0.2482	0.12808	0.25209	-0.3243	0.096415	0.26981
154	1.54	-0.22546	1.6908	0.18511	-0.22838	1.6878	0.29808	-0.37956	1.7901	0.17369	-0.36906	1.7704	0.30532	-0.52105	1.6557	0.24283	-0.66946	1.3635	0.24827	-0.42158	1.5415	0.23517	-0.43896	1.3747	0.21205	-0.60156	1.5675	0.36314	-0.48482	1.6777	0.099609	-0.60702	1.3866	-0.093534	-0.32804	1.2862	-0.10273	-0.35551	1.2235	-0.14115	-0.30321	1.2652	-0.17068	-0.45794	1.6004	0.38807	-0.66589	1.335	0.55184	-0.55097	1.0606	0.49682	-0.60805	1.0356	0.54372	-0.53354	1.0202	0.56272	-0.53372	1.1533	0.095644	-0.47754	1.1217	0.31644	-0.69489	1.1647	0.23992	-0.66915	1.1757	0.29654	-0.69548	1.1991	0.19117	-0.50012	0.85676	0.014405	-0.438	0.93657	0.0047269	-0.4145	0.85155	-0.0075995	-0.33215	0.71615	0.0056751	-0.50766	0.74622	0.034423	-0.50124	0.68267	0.043638	-0.55379	0.70844	0.054993	-0.71362	0.71519	0.12342	-0.71497	0.75341	0.16066	-0.74046	0.56737	0.1375	-0.79181	0.64162	0.11888	-0.45351	0.83027	0.37379	-0.53947	0.78456	0.35412	-0.46211	0.74899	0.36444	-0.41614	0.59324	0.32342	-0.37954	0.395	0.31289	-0.44336	0.38108	0.30946	-0.40454	0.34198	0.30227	-0.37196	0.17121	0.25244	-0.41287	0.16863	0.19551	-0.22624	0.11482	0.24971	-0.30333	0.084445	0.26695
155	1.55	-0.21483	1.6779	0.18395	-0.21803	1.6749	0.29679	-0.36926	1.7785	0.17296	-0.35842	1.7577	0.30337	-0.51075	1.6434	0.24081	-0.6589	1.3513	0.24915	-0.41103	1.5292	0.23394	-0.42914	1.3625	0.21049	-0.59157	1.5557	0.36143	-0.47468	1.6647	0.0977	-0.59393	1.3744	-0.097739	-0.31717	1.2652	-0.10564	-0.34699	1.2023	-0.14173	-0.2932	1.2407	-0.17275	-0.44795	1.5885	0.38623	-0.66107	1.3314	0.55454	-0.55044	1.0539	0.50875	-0.60956	1.0301	0.55332	-0.53624	1.0132	0.5756	-0.52394	1.1419	0.094035	-0.46435	1.1108	0.31456	-0.68274	1.1504	0.24171	-0.65734	1.1623	0.29788	-0.68454	1.1856	0.19314	-0.48908	0.84362	0.014854	-0.42718	0.92339	0.0043088	-0.40372	0.83858	-0.007561	-0.32138	0.70333	0.0055707	-0.49733	0.73252	0.034782	-0.49007	0.66931	0.043938	-0.54272	0.69448	0.055646	-0.70227	0.70066	0.12477	-0.70357	0.73915	0.16173	-0.72843	0.55334	0.13927	-0.78008	0.62642	0.12021	-0.43658	0.81959	0.37399	-0.52197	0.77285	0.3541	-0.44415	0.73825	0.36522	-0.39681	0.5829	0.32307	-0.36068	0.38467	0.3123	-0.42451	0.37101	0.30813	-0.38579	0.33195	0.30165	-0.35343	0.16121	0.2522	-0.39452	0.15908	0.19526	-0.20824	0.099348	0.24715	-0.286	0.071453	0.26511
156	1.56	-0.20427	1.6638	0.18281	-0.20811	1.6614	0.29572	-0.35861	1.7647	0.17122	-0.34836	1.7444	0.3019	-0.50081	1.6302	0.23891	-0.64854	1.3379	0.25017	-0.40085	1.516	0.23248	-0.41895	1.3495	0.20895	-0.58149	1.5428	0.35985	-0.46542	1.6506	0.095653	-0.58038	1.3598	-0.10158	-0.3069	1.2428	-0.10897	-0.33853	1.1799	-0.14151	-0.2839	1.2152	-0.17509	-0.4378	1.5755	0.38455	-0.65542	1.3266	0.55756	-0.54921	1.0463	0.52086	-0.61073	1.0235	0.56227	-0.53865	1.0055	0.58877	-0.51406	1.129	0.092693	-0.45102	1.0988	0.31297	-0.67104	1.1352	0.24342	-0.64405	1.1478	0.29881	-0.6738	1.1707	0.19484	-0.47752	0.82998	0.015383	-0.41592	0.9101	0.003721	-0.39222	0.82483	-0.007429	-0.30902	0.69042	0.0050717	-0.48534	0.71812	0.035354	-0.47781	0.65468	0.044086	-0.53041	0.67954	0.055925	-0.68988	0.68448	0.12535	-0.69194	0.72293	0.16244	-0.7149	0.5367	0.14013	-0.76767	0.60961	0.12139	-0.41891	0.8086	0.37373	-0.50141	0.76074	0.35406	-0.42506	0.7271	0.3644	-0.37691	0.57181	0.32227	-0.34287	0.37303	0.31176	-0.4068	0.35976	0.30702	-0.36839	0.32046	0.30109	-0.33772	0.14916	0.25226	-0.37993	0.14829	0.19595	-0.19403	0.081981	0.24433	-0.27214	0.057695	0.26458
